#tb 0: 1/44100
#media_type 0: audio
#codec_id 0: eac3
#sample_rate 0: 44100
#channel_layout_name 0: 5.1.2
0,       -256,       -256,     1536,     5758, 0x6d4d644b
0,       1280,       1280,     1536,     5760, 0x165f9d38
0,       2816,       2816,     1536,     5758, 0x5164aecf
0,       4352,       4352,     1536,     5758, 0x5983c3e0
0,       5888,       5888,     1536,     5758, 0x94a16fe0
0,       7424,       7424,     1536,     5758, 0x67806895
0,       8960,       8960,     1536,     5760, 0x9eb75cd6
0,      10496,      10496,     1536,     5758, 0x5ac6a122
